/* XPM */
static char *graphic[] = {
/* width height num_colors chars_per_pixel */
"32 32 332 2", 
/* colors */
"   c None",
".  c #EB9009",
"X  c #F5652F",
"o  c #F08040",
"O  c #F3743C",
"+  c #FA683C",
"@  c #F39304",
"#  c #E19212",
"$  c #FAA102",
"%  c #EE9106",
"&  c None",
"*  c #E87834",
"=  c #FA652C",
"-  c None",
";  c #AF7202",
":  c #F99901",
">  c #FB5A2A",
",  c #F96B41",
"<  c #E9930C",
"1  c #F79C03",
"2  c #A57702",
"3  c #FB4931",
"4  c #7B5802",
"5  c #DE822D",
"6  c #805B0D",
"7  c #FA522E",
"8  c #F8662D",
"9  c #F69402",
"0  c #ED9807",
"q  c #D88E41",
"w  c #FB7334",
"e  c None",
"r  c #E08C14",
"t  c #FB4728",
"y  c #E9910B",
"u  c #FA6F36",
"i  c #FB4932",
"p  c #FB6D2F",
"a  c #FA3320",
"s  c #F69201",
"d  c #F99701",
"f  c #E5902C",
"g  c #FA9D01",
"h  c #FB6837",
"j  c #F95733",
"k  c #DB7F31",
"l  c #FB6E3D",
"z  c #AD7E02",
"x  c None",
"c  c #996E02",
"v  c #EA5E30",
"b  c #FB7537",
"n  c None",
"m  c None",
"M  c #F4532E",
"N  c None",
"B  c #E08640",
"V  c #FA4A25",
"C  c #F05B33",
"Z  c #725403",
"A  c #976607",
"S  c #F99501",
"D  c #D2842C",
"F  c None",
"G  c #FA9B01",
"H  c #F89C01",
"J  c #E29211",
"K  c #FB692E",
"L  c #D88827",
"P  c #F95930",
"I  c #FA7633",
"U  c #F96A2E",
"Y  c #E59201",
"T  c #FA7B45",
"R  c None",
"E  c #664B02",
"W  c #D58031",
"Q  c #FD3E2C",
"!  c None",
"~  c #EB9709",
"^  c #F89C02",
"/  c #F85E2A",
"(  c #FC5E2C",
")  c #D38909",
"_  c None",
"`  c #E6950B",
"'  c #FA5435",
"]  c #D18D2F",
"[  c #614703",
"{  c #E29011",
"}  c #F9A001",
"|  c #7D5909",
" . c #E58F0C",
".. c None",
"X. c #755502",
"o. c #DF9301",
"O. c #E4952E",
"+. c #FA6F3B",
"@. c None",
"#. c #FB663C",
"$. c #F97D35",
"%. c #F75A31",
"&. c #E27737",
"*. c #F99E00",
"=. c #7B5808",
"-. c #FB5C39",
";. c None",
":. c None",
">. c #F39804",
",. c #FC6433",
"<. c #FA6E2F",
"1. c #EF6036",
"2. c #F26536",
"3. c #705103",
"4. c #DB8630",
"5. c None",
"6. c #D9891A",
"7. c #FB6D35",
"8. c #FA713E",
"9. c None",
"0. c #F99E01",
"q. c #926502",
"w. c #F9532F",
"e. c #896302",
"r. c None",
"t. c #F08231",
"y. c #F38A3F",
"u. c None",
"i. c None",
"p. c None",
"a. c None",
"s. c #F7652D",
"d. c #FA9702",
"f. c #F89802",
"g. c #DD8A12",
"h. c None",
"j. c #FA6C2F",
"k. c #FD3226",
"l. c None",
"z. c #F48342",
"x. c #FB612C",
"c. c #E95F31",
"v. c None",
"b. c #F29313",
"n. c #F99C01",
"m. c None",
"M. c None",
"N. c #BD8802",
"B. c None",
"V. c #F43F28",
"C. c None",
"Z. c None",
"A. c #E38E0E",
"S. c None",
"D. c #FA6B3C",
"F. c #F9472D",
"G. c #DA8E10",
"H. c #D47B2C",
"J. c #E7773A",
"K. c #F97C46",
"L. c #FB6733",
"P. c #FA6C31",
"I. c None",
"U. c #DA8823",
"Y. c None",
"T. c #FB4A2F",
"R. c #F99A01",
"E. c #D87F32",
"W. c #FB6B37",
"Q. c #D58625",
"!. c #E98A32",
"~. c #F76530",
"^. c #926102",
"/. c #FAA001",
"(. c #D38C35",
"). c #F59C01",
"_. c #916802",
"`. c #EA9B01",
"'. c #805D02",
"]. c None",
"[. c None",
"{. c #E66932",
"}. c #F89402",
"|. c #FA662D",
" X c #F36D36",
".X c None",
"XX c None",
"oX c #F57532",
"OX c #F76531",
"+X c None",
"@X c None",
"#X c None",
"$X c None",
"%X c #FB4830",
"&X c #F79B02",
"*X c #FA633D",
"=X c None",
"-X c None",
";X c #EC8341",
":X c #93660E",
">X c #E38C0F",
",X c #805D03",
"<X c #F97F3D",
"1X c None",
"2X c #F4863B",
"3X c #EC6436",
"4X c #E99301",
"5X c #F39B01",
"6X c #E08D15",
"7X c #D58D39",
"8X c #F34A2C",
"9X c None",
"0X c None",
"qX c None",
"wX c #E79402",
"eX c #FA613A",
"rX c None",
"tX c #795803",
"yX c #ED6A33",
"uX c #DE7833",
"iX c #F09246",
"pX c None",
"aX c None",
"sX c None",
"dX c #855D02",
"fX c #E8950A",
"gX c #976E02",
"hX c #FB6D3D",
"jX c None",
"kX c None",
"lX c #FC6934",
"zX c #FC5636",
"xX c #FA7A43",
"cX c #A46E03",
"vX c None",
"bX c #FA743D",
"nX c None",
"mX c #DC802E",
"MX c #E98E23",
"NX c #684B03",
"BX c #FA9A01",
"VX c #E78E46",
"CX c #FB6336",
"ZX c #E96A33",
"AX c #A26D02",
"SX c #C68528",
"DX c #ED892D",
"FX c #A67802",
"GX c None",
"HX c #FB673B",
"JX c #EC6F38",
"KX c #CF8A20",
"LX c #FA9A02",
"PX c #F4652F",
"IX c None",
"UX c #F85D2A",
"YX c None",
"TX c None",
"RX c #FB653B",
"EX c #FB673C",
"WX c None",
"QX c #BD7E02",
"!X c #F46D37",
"~X c None",
"^X c #906702",
"/X c #815B02",
"(X c #F97A33",
")X c #FB633A",
"_X c None",
"`X c #FA4122",
"'X c #CF8327",
"]X c #D28F39",
"[X c None",
"{X c #FA6E3B",
"}X c #F15C36",
"|X c #F19A05",
" o c None",
".o c #E27637",
"Xo c #F2642F",
"oo c #CE9401",
"Oo c #B1760E",
"+o c None",
"@o c #FC6333",
"#o c #FB7038",
"$o c None",
"%o c #CF852A",
"&o c #FA6E3C",
"*o c #FA6F31",
"=o c #DD7932",
"-o c #FC4E31",
";o c None",
":o c None",
">o c None",
",o c #F97F46",
"<o c None",
"1o c #F09003",
"2o c #FA6E3E",
"3o c #FA6B2E",
"4o c #F77933",
"5o c #F7873F",
"6o c #EE6630",
"7o c #936A02",
"8o c #7F5A02",
"9o c #B87D2A",
"0o c #FB5335",
"qo c #EE9507",
"wo c None",
"eo c #FB6A34",
"ro c #F6950B",
"to c #F38D2C",
"yo c None",
"uo c #FAA302",
"io c #D1882F",
"po c #FB5937",
"ao c #DE8136",
"so c #825F03",
"do c #D4872A",
"fo c #F65A34",
"go c #F89501",
"ho c #F96D42",
"jo c #FB6A35",
"ko c None",
"lo c #E78E1C",
"zo c #A87102",
"xo c #DF7634",
"co c None",
"vo c None",
"bo c #FA692E",
"no c #F7602B",
"mo c #FA6C3E",
"Mo c #D28629",
"No c #FB472E",
/* pixels */
"                              [.[.      [.[.                    ",
"                                        [.[.                    ",
"                                                                ",
"                                                          [.    ",
"                                        .X+Xi..X                ",
"                                      sX:.$oF.<o                ",
"                                  .X@.@X3X;Xz.j YX              ",
"                                #XY.}XxoQ.] 7XJ...m.            ",
"                              9.WX1.k 6X>.qo .L JXkX#X          ",
"                            9.a.C W { &X/.G BX< 4.2.M..X        ",
"                          =X;.P !.# 1 $ uoG BXf.r aofoco        ",
"                        =X].w.5 OocXQX`.} d S S % ioo rXS.      ",
"                      v.& 7 H.6 '.gXe.q.Y goS S . (.iX%.~X[.    ",
"                  .XB.woM DX:Xso3.X.z ^X; s }.roMX* ~.V aX#X    ",
"            .XI.x XXV.v mXG./X2 [ NXE c ^.1ob.tooX= ( t :oTX    ",
"          IXr.Z.8Xc.uXU.y wXdXooFX[ Z 7oA lot.4oj.@ohX-opXTX    ",
"        $X- a O VX%o>X@ : ).zo_.N.tX,X=.SX2X(Xw &oRXT.>o1X      ",
"        m.! `X!Xq g.S d.n.*.4XAX8o4 | 9oy.$.b xX*X9XqX$X        ",
"        h.k.> 8 &.6.9 LXg 0.R.5Xo.) O.5oI u ,o, u.#X            ",
"        h.Q CXp X E.A.H 0.0.n.0.~ f <X*oeoK.hoN .X              ",
"        .X+opoW.U yXMo0 0.0.^ fX'XZX|.joT R vo                  ",
"          9.ko)X7.s..oKX` |XJ D {.UXL.2oC.jX[.                  ",
"            p.3 D.P.PXB ]Xdo=o6o/ ,.HXNom   [.                  ",
"            .Xe zX+.boOX XXonox.h EX%XvX.X                      ",
"              #Xn eX#o<.3oK lX8.#._XGX.X                        ",
"                -XyomobX{Xl + ' ;onX                            ",
"                  5.i -.0o_  oF v.                              ",
"                  .X[Xp.0X9..X                                  ",
"                                                                ",
"        [.l.                                                    ",
"        [.l.                                                    ",
"                                                                "
};
