/* XPM */
static char *graphic[] = {
/* width height num_colors chars_per_pixel */
"16 16 107 2", 
/* colors */
"   c None",
".  c #E88C17",
"X  c #EE6D2D",
"o  c #C77A15",
"O  c #FB5A34",
"+  c #E38520",
"@  c #F26D30",
"#  c #E9722A",
"$  c None",
"%  c #E98E14",
"&  c #E98624",
"*  c None",
"=  c #EE7132",
"-  c #F69604",
";  c None",
":  c #DA8802",
">  c None",
",  c None",
"<  c #E67C33",
"1  c #F09703",
"2  c None",
"3  c #E7762B",
"4  c None",
"5  c None",
"6  c None",
"7  c #E77A28",
"8  c #E37E2D",
"9  c #EE910B",
"0  c #F77539",
"q  c None",
"w  c None",
"e  c None",
"r  c #F69B01",
"t  c None",
"y  c None",
"u  c None",
"i  c #F86433",
"p  c #E46727",
"a  c None",
"s  c #EF930A",
"d  c None",
"f  c #F87738",
"g  c #866004",
"h  c None",
"j  c #F09709",
"k  c None",
"l  c #D88814",
"z  c #F36731",
"x  c #845F03",
"c  c None",
"v  c None",
"b  c #F96A35",
"n  c #E47224",
"m  c None",
"M  c #DA8313",
"N  c #F38425",
"B  c #F96635",
"V  c #F96A37",
"C  c #BE7F02",
"Z  c None",
"A  c None",
"S  c None",
"D  c None",
"F  c None",
"G  c None",
"H  c #E76C2F",
"J  c None",
"K  c #F76130",
"L  c #EC970C",
"P  c #DE6428",
"I  c None",
"U  c None",
"Y  c #A46613",
"T  c #F76E30",
"R  c #E1822C",
"E  c #EE9703",
"W  c #966A04",
"Q  c #F97341",
"!  c #FB572F",
"~  c #E87C30",
"^  c #FA6639",
"/  c None",
"(  c #EF6E39",
")  c #E78C15",
"_  c #9E6F02",
"`  c #E07E2F",
"'  c None",
"]  c None",
"[  c #FA6035",
"{  c #FA6436",
"}  c #C57B0F",
"|  c None",
" . c #E58820",
".. c #E7712C",
"X. c None",
"o. c #F69308",
"O. c #7F5C03",
"+. c None",
"@. c #DC8F04",
"#. c #F99D01",
"$. c #A37104",
"%. c None",
"&. c #F96934",
"*. c None",
"=. c #E7792D",
"-. c #9D6A14",
";. c #F45B30",
/* pixels */
"                    A           ",
"                    D D         ",
"                D +.6 m c       ",
"              D X.H 8 < v F     ",
"            F 5 ... j % 3 Z     ",
"          F | P o @.r -  .( 2   ",
"      D G * p Y g _ : o.& z %.  ",
"    I t U n M $.O.x } N T ! 4   ",
"  D u ;.R 9 1 C W -.` f ^ > J   ",
"  F e K 7 s #.E l ~ 0 Q q d     ",
"    ; [ @ + L ) # b S ,         ",
"    F w B = =.X i O a           ",
"      *./ V &.{ ' ] D           ",
"        ] y k $ h               ",
"    A     F D                   ",
"    A                           "
};
